<svg width="16" height="16" viewBox="0 0 16 16" fill="none" xmlns="http://www.w3.org/2000/svg">
<path d="M8 0C12.2 0 15 1.1 15 2.5V3V4C15.5531 4 16 4.44688 16 5V7C16 7.55312 15.5531 8 15 8V13C15 13.5531 14.5531 14 14 14V15C14 15.5531 13.5531 16 13 16H12C11.4469 16 11 15.5531 11 15V14H5V15C5 15.5531 4.55312 16 4 16H3C2.44688 16 2 15.5531 2 15V14C1.44687 14 1 13.5531 1 13V8C0.446875 8 0 7.55312 0 7V5C0 4.44688 0.446875 4 1 4V3V2.5C1 1.1 3.8 0 8 0ZM3 5V8C3 8.55313 3.44688 9 4 9H7.5V4H4C3.44688 4 3 4.44688 3 5ZM8.5 9H12C12.5531 9 13 8.55313 13 8V5C13 4.44688 12.5531 4 12 4H8.5V9ZM3.5 12.5C4.05192 12.5 4.5 12.0519 4.5 11.5C4.5 10.9481 4.05192 10.5 3.5 10.5C2.94808 10.5 2.5 10.9481 2.5 11.5C2.5 12.0519 2.94808 12.5 3.5 12.5ZM12.5 12.5C13.0519 12.5 13.5 12.0519 13.5 11.5C13.5 10.9481 13.0519 10.5 12.5 10.5C11.9481 10.5 11.5 10.9481 11.5 11.5C11.5 12.0519 11.9481 12.5 12.5 12.5ZM11 2.5C11 2.225 10.775 2 10.5 2H5.5C5.225 2 5 2.225 5 2.5Cnan nan 5.225 3 5.5 3H10.5C10.775 3 11 2.775 11 2.5Z" fill="#274472"/>
</svg>
