<svg width="16" height="18" viewBox="0 0 16 18" fill="none" xmlns="http://www.w3.org/2000/svg">
<path d="M15.875 15.6594C15.6961 15.4401 15.4705 15.2635 15.2146 15.1425C14.9588 15.0215 14.6792 14.9592 14.3962 14.96C14.1132 14.9608 13.834 15.0248 13.5788 15.1473C13.3237 15.2697 13.0991 15.4476 12.9215 15.6679C12.845 15.7705 12.7454 15.8536 12.6309 15.9105C12.5163 15.9675 12.39 15.9968 12.2621 15.9959C12.1341 15.9951 12.0082 15.9642 11.8944 15.9057C11.7806 15.8473 11.6821 15.7629 11.6069 15.6594C11.4279 15.4403 11.2023 15.2639 10.9465 15.143C10.6907 15.0221 10.4111 14.9598 10.1282 14.9606C9.84525 14.9614 9.56605 15.0254 9.31094 15.1477C9.05583 15.2701 8.83122 15.4478 8.65348 15.6679C8.57707 15.7704 8.47761 15.8536 8.36315 15.9105C8.24869 15.9675 8.12243 15.9968 7.99458 15.9959C7.86672 15.9951 7.74085 15.9642 7.62714 15.9057C7.51343 15.8473 7.41507 15.7629 7.34 15.6594C7.16099 15.4401 6.9353 15.2635 6.67938 15.1425C6.42347 15.0215 6.14377 14.9592 5.86069 14.96C5.57761 14.9608 5.29829 15.0248 5.04307 15.1472C4.78786 15.2697 4.56319 15.4476 4.38546 15.6679C4.30905 15.7704 4.20959 15.8536 4.09513 15.9105C3.98067 15.9675 3.85441 15.9968 3.72656 15.9959C3.5987 15.9951 3.47283 15.9642 3.35912 15.9057C3.24541 15.8473 3.14705 15.7629 3.07197 15.6594C2.89312 15.4414 2.66814 15.2658 2.41324 15.1452C2.15835 15.0247 1.87988 14.9621 1.59791 14.9621C1.31593 14.9621 1.03747 15.0247 0.782571 15.1452C0.527676 15.2658 0.302696 15.4414 0.123838 15.6594C0.0331409 15.7682 -0.0106178 15.9086 0.00218875 16.0497C0.0149953 16.1907 0.083318 16.3209 0.192127 16.4116C0.300935 16.5023 0.441317 16.5461 0.582389 16.5333C0.723461 16.5205 0.853668 16.4522 0.944365 16.3433C1.02078 16.2408 1.12023 16.1577 1.23469 16.1008C1.34915 16.0438 1.47541 16.0145 1.60327 16.0153C1.73112 16.0162 1.85699 16.0471 1.9707 16.1055C2.08441 16.164 2.18278 16.2484 2.25785 16.3519C2.43686 16.5712 2.66254 16.7478 2.91846 16.8688C3.17438 16.9898 3.45407 17.0521 3.73715 17.0513C4.02023 17.0505 4.29956 16.9865 4.55477 16.864C4.80999 16.7416 5.03465 16.5637 5.21239 16.3433C5.2888 16.2408 5.38825 16.1577 5.50271 16.1008C5.61717 16.0438 5.74343 16.0145 5.87129 16.0153C5.99914 16.0162 6.12501 16.0471 6.23872 16.1055C6.35243 16.164 6.4508 16.2484 6.52587 16.3519C6.70488 16.571 6.93052 16.7474 7.18633 16.8683C7.44215 16.9892 7.7217 17.0515 8.00464 17.0507C8.28757 17.0498 8.56676 16.9859 8.82188 16.8636C9.07699 16.7412 9.3016 16.5635 9.47934 16.3433C9.55586 16.2408 9.65542 16.1577 9.76996 16.1008C9.88451 16.0438 10.0108 16.0145 10.1388 16.0154C10.2667 16.0162 10.3926 16.0471 10.5064 16.1055C10.6202 16.164 10.7187 16.2484 10.7939 16.3519C10.9689 16.5771 11.1932 16.7591 11.4496 16.8841C11.7059 17.0091 11.9875 17.0736 12.2727 17.0728C12.5579 17.072 12.8391 17.0058 13.0948 16.8793C13.3504 16.7529 13.5736 16.5695 13.7474 16.3433C13.8236 16.2417 13.9224 16.1593 14.0361 16.1025C14.1497 16.0457 14.2749 16.0161 14.402 16.0161C14.529 16.0161 14.6543 16.0457 14.7679 16.1025C14.8815 16.1593 14.9803 16.2417 15.0566 16.3433C15.1473 16.452 15.2774 16.5202 15.4184 16.5329C15.5594 16.5456 15.6996 16.5018 15.8083 16.4111C15.9169 16.3204 15.9851 16.1903 15.9978 16.0493C16.0105 15.9083 15.9667 15.7681 15.876 15.6594H15.875Z" fill="#274472"/>
<path d="M1.96538 13.9692C2.63228 14.0335 3.2563 14.3268 3.73128 14.7993C4.00837 14.5133 4.33997 14.2857 4.70649 14.1299C5.07302 13.9741 5.46704 13.8934 5.86529 13.8924C6.26358 13.8931 6.65767 13.9738 7.02423 14.1295C7.39078 14.2853 7.72235 14.5131 7.9993 14.7993C8.27661 14.5136 8.60825 14.2861 8.97473 14.1304C9.3412 13.9746 9.73511 13.8937 10.1333 13.8924C10.5317 13.8928 10.926 13.9734 11.2927 14.1294C11.6593 14.2854 11.9908 14.5136 12.2673 14.8004C12.7435 14.3149 13.3716 14.0073 14.0471 13.9287L15.4342 10.3286C15.4604 10.2604 15.4723 10.1875 15.4692 10.1145C15.4661 10.0415 15.448 9.96995 15.4161 9.90422C15.3842 9.83849 15.3391 9.78002 15.2837 9.73243C15.2282 9.68484 15.1636 9.64915 15.0938 9.62756L8.15828 7.49355C8.05608 7.46211 7.94679 7.46211 7.84458 7.49355L0.909048 9.62756C0.839151 9.64903 0.774415 9.68465 0.718859 9.73219C0.663303 9.77973 0.618112 9.83819 0.586094 9.90392C0.554075 9.96966 0.535912 10.0413 0.532731 10.1143C0.529551 10.1874 0.541422 10.2603 0.567606 10.3286L1.96538 13.9692Z" fill="#274472"/>
<path d="M8.4675 6.47245L13.3341 7.96946V3.73452C13.3341 3.59302 13.2779 3.45733 13.1779 3.35728C13.0778 3.25722 12.9421 3.20102 12.8006 3.20102H9.5996V0.533503C9.5996 0.392009 9.54339 0.25631 9.44334 0.156259C9.34329 0.0562082 9.20759 0 9.06609 0L6.93208 0C6.79059 0 6.65489 0.0562082 6.55484 0.156259C6.45479 0.25631 6.39858 0.392009 6.39858 0.533503V3.20102H3.19757C3.05607 3.20102 2.92037 3.25722 2.82032 3.35728C2.72027 3.45733 2.66406 3.59302 2.66406 3.73452V7.96946L7.52854 6.47565C7.83404 6.37988 8.16136 6.37876 8.4675 6.47245ZM10.1438 4.80152H10.1544C10.2955 4.80293 10.4302 4.86013 10.5292 4.9606C10.6281 5.06107 10.6833 5.19664 10.6826 5.33767C10.6819 5.4787 10.6254 5.61371 10.5254 5.71318C10.4254 5.81266 10.2901 5.8685 10.1491 5.8685C10.0081 5.8685 9.87278 5.81266 9.77281 5.71318C9.67283 5.61371 9.61631 5.4787 9.61561 5.33767C9.6149 5.19664 9.67007 5.06107 9.76904 4.9606C9.86802 4.86013 10.0027 4.80293 10.1438 4.80152ZM5.88642 5.86853C5.74493 5.86853 5.60923 5.81232 5.50918 5.71227C5.40912 5.61222 5.35292 5.47652 5.35292 5.33503C5.35291 5.19445 5.40838 5.05956 5.50728 4.95966C5.60618 4.85976 5.74052 4.80293 5.88108 4.80152H5.89175C6.03325 4.80152 6.16895 4.85773 6.269 4.95778C6.36905 5.05783 6.42526 5.19353 6.42526 5.33503C6.42526 5.47652 6.36905 5.61222 6.269 5.71227C6.16895 5.81232 6.03325 5.86853 5.89175 5.86853H5.88642ZM8.00976 4.80152H8.02043C8.16145 4.80293 8.29618 4.86013 8.39516 4.9606C8.49413 5.06107 8.5493 5.19664 8.54859 5.33767C8.54789 5.4787 8.49137 5.61371 8.39139 5.71318C8.29142 5.81266 8.15613 5.8685 8.01509 5.8685C7.87406 5.8685 7.73877 5.81266 7.6388 5.71318C7.53882 5.61371 7.4823 5.4787 7.4816 5.33767C7.48089 5.19664 7.53606 5.06107 7.63503 4.9606C7.73401 4.86013 7.86874 4.80293 8.00976 4.80152Z" fill="#274472"/>
</svg>
