<svg width="12" height="16" viewBox="0 0 12 16" fill="none" xmlns="http://www.w3.org/2000/svg">
<path d="M11.4341 15.8813L9.8146 13.5472C9.79863 13.5235 9.77016 13.511 9.74099 13.5131C9.67085 13.5187 8.58262 13.5228 8.58262 13.5228C8.51873 13.5228 8.48054 13.5916 8.51595 13.643L8.78055 14.0236C8.81597 14.0749 8.77777 14.143 8.71388 14.143H2.73377C2.66988 14.143 2.63168 14.0743 2.6671 14.0229L2.93169 13.6423C2.96711 13.5909 2.92892 13.5222 2.86503 13.5222C2.86503 13.5222 1.77679 13.5187 1.70666 13.5124C1.67749 13.5103 1.64971 13.5228 1.63304 13.5465L0.0135412 15.8806C-0.0218769 15.932 0.016319 16 0.0802101 16H1.25177C1.27816 16 1.30316 15.9875 1.31844 15.966L1.80109 15.2694C1.81567 15.2479 1.84067 15.2354 1.86775 15.2354H9.58126C9.60765 15.2354 9.63265 15.2486 9.64793 15.2694L10.1306 15.966C10.1452 15.9875 10.1702 16 10.1972 16H11.3688C11.4327 16 11.4709 15.9313 11.4355 15.8806L11.4341 15.8813Z" fill="#274472"/>
<path d="M2.36027 12.8123H9.08832C10.2835 12.8123 11.253 11.8436 11.253 10.6476V2.97379C11.253 1.33137 9.92172 0 8.27923 0H3.17008C1.52766 0 0.196289 1.3313 0.196289 2.97379V10.6476C0.196289 11.8428 1.16507 12.8123 2.36098 12.8123H2.36027ZM9.1925 11.629C8.70776 11.629 8.3147 11.2359 8.3147 10.7512C8.3147 10.2664 8.70776 9.87336 9.1925 9.87336C9.67725 9.87336 10.0703 10.2664 10.0703 10.7512C10.0703 11.2359 9.67725 11.629 9.1925 11.629ZM9.68905 3.45164C9.89948 3.45164 10.0703 3.62248 10.0703 3.83289V6.69557C10.0703 6.86502 9.9585 7.01433 9.7953 7.06155L6.45421 8.03311C6.38476 8.05325 6.31601 8.00116 6.31601 7.92894V3.56008C6.31601 3.50035 6.36462 3.45174 6.42435 3.45174L9.68905 3.45164ZM4.06664 1.47095C4.06664 1.31191 4.19512 1.18344 4.35415 1.18344H7.0938C7.25284 1.18344 7.38131 1.31191 7.38131 1.47095V2.11125C7.38131 2.27029 7.25284 2.39877 7.0938 2.39877H4.35415C4.19512 2.39877 4.06664 2.27029 4.06664 2.11125V1.47095ZM1.37908 3.8328C1.37908 3.62238 1.54992 3.45155 1.76034 3.45155H5.02499C5.08471 3.45155 5.13332 3.50016 5.13332 3.55989V7.92874C5.13332 8.00097 5.06388 8.05305 4.99512 8.03291L1.65403 7.06136C1.49153 7.01414 1.37902 6.86482 1.37902 6.69538L1.37908 3.8328ZM2.2562 9.8739C2.74094 9.8739 3.13401 10.267 3.13401 10.7517C3.13401 11.2365 2.74094 11.6295 2.2562 11.6295C1.77145 11.6295 1.37839 11.2365 1.37839 10.7517C1.37839 10.267 1.77145 9.8739 2.2562 9.8739Z" fill="#274472"/>
</svg>
