<svg width="12" height="16" viewBox="0 0 12 16" fill="none" xmlns="http://www.w3.org/2000/svg">
<path d="M6.14541 3.6873C7.16359 3.6873 7.98905 2.86186 7.98905 1.84365C7.98905 0.825432 7.16359 0 6.14541 0C5.12716 0 4.30176 0.825432 4.30176 1.84365C4.30176 2.86186 5.12716 3.6873 6.14541 3.6873Z" fill="#274472"/>
<path d="M2.01382 5.46246C1.85489 5.55096 1.72325 5.68136 1.63325 5.83949L0.120844 8.49655C-0.130992 8.93897 0.0235184 9.50177 0.465957 9.75361C0.90842 10.0055 1.47127 9.85096 1.72309 9.40848L3.10784 6.9753C3.1146 6.96344 3.12443 6.95366 3.13635 6.94709L3.34462 6.83106L2.98892 8.15855C2.80794 8.83419 3.02665 9.52273 3.50023 9.97307L5.47041 11.943L6.3864 15.3193C6.51969 15.8107 7.02608 16.1009 7.51747 15.9676C8.00881 15.8343 8.299 15.3279 8.1657 14.8366L7.2161 11.3371C7.15378 11.1074 7.03241 10.898 6.86415 10.7297L6.27516 10.1407L6.94447 7.64307L7.43875 8.53582C7.59423 8.81649 7.88977 8.99071 8.21062 8.99071H10.2297C10.7389 8.99071 11.1517 8.57792 11.1517 8.06876C11.1517 7.55967 10.739 7.14694 10.23 7.14682L8.77693 7.14645L7.72796 5.25112C7.47009 4.7851 7.04415 4.435 6.53708 4.2721L6.09817 4.13113C5.41301 3.91106 4.66732 3.98487 4.03857 4.33495L2.01382 5.46246Z" fill="#274472"/>
<path d="M4.97178 12.3109L3.62217 10.9612L1.6383 14.3973C1.38375 14.8382 1.53481 15.402 1.97573 15.6565C2.4166 15.9111 2.98039 15.76 3.23494 15.3191L4.97178 12.3109Z" fill="#274472"/>
</svg>
