<svg width="16" height="16" viewBox="0 0 16 16" fill="none" xmlns="http://www.w3.org/2000/svg">
<path d="M0 16L1.13085 11.8935C0.431709 10.6882 0.0649474 9.3232 0.0687679 7.92776C0.0687679 3.55513 3.6447 0 8.03438 0C10.1662 0 12.1681 0.825095 13.6695 2.32319C15.1748 3.82129 16.0038 5.81369 16 7.93156C16 12.3042 12.4241 15.8593 8.03056 15.8593H8.02674C6.6934 15.8593 5.383 15.5247 4.21776 14.8935L0 16ZM4.42024 13.4601L4.66093 13.6046C5.67717 14.2053 6.8424 14.5209 8.03056 14.5247H8.03438C11.6829 14.5247 14.6552 11.5703 14.6552 7.93536C14.6552 6.17491 13.9675 4.52091 12.7182 3.27376C11.469 2.02662 9.80324 1.34221 8.03438 1.34221C4.38586 1.3384 1.41356 4.29278 1.41356 7.92776C1.41356 9.1711 1.76122 10.384 2.42598 11.4335L2.58261 11.6844L1.91404 14.1141L4.42024 13.4601Z" fill="#FFBD59"/>
<path d="M0 16L1.13085 11.8935C0.431709 10.6882 0.0649474 9.3232 0.0687679 7.92776C0.0687679 3.55513 3.6447 0 8.03438 0C10.1662 0 12.1681 0.825095 13.6695 2.32319C15.1748 3.82129 16.0038 5.81369 16 7.93156C16 12.3042 12.4241 15.8593 8.03056 15.8593H8.02674C6.6934 15.8593 5.383 15.5247 4.21776 14.8935L0 16ZM4.42024 13.4601L4.66093 13.6046C5.67717 14.2053 6.8424 14.5209 8.03056 14.5247H8.03438C11.6829 14.5247 14.6552 11.5703 14.6552 7.93536C14.6552 6.17491 13.9675 4.52091 12.7182 3.27376C11.469 2.02662 9.80324 1.34221 8.03438 1.34221C4.38586 1.3384 1.41356 4.29278 1.41356 7.92776C1.41356 9.1711 1.76122 10.384 2.42598 11.4335L2.58261 11.6844L1.91404 14.1141L4.42024 13.4601Z" fill="#FFBD59"/>
<path fill-rule="evenodd" clip-rule="evenodd" d="M6.04416 4.61261C5.89517 4.28181 5.73853 4.27421 5.59717 4.2704C5.48256 4.2666 5.34884 4.2666 5.21513 4.2666C5.08141 4.2666 4.86747 4.31603 4.68409 4.51375C4.50071 4.71147 3.98877 5.19056 3.98877 6.16774C3.98877 7.14113 4.70319 8.08409 4.80252 8.21717C4.90185 8.35025 6.1817 10.4149 8.20271 11.2096C9.8837 11.8712 10.2275 11.7381 10.5905 11.7039C10.9534 11.6696 11.7672 11.2248 11.9353 10.7609C12.0996 10.297 12.0996 9.90158 12.0499 9.81793C12.0002 9.73428 11.8665 9.68485 11.6678 9.58599C11.4692 9.48713 10.4912 9.00805 10.3078 8.93961C10.1244 8.87497 9.99067 8.84075 9.86078 9.03847C9.72707 9.23618 9.34502 9.68105 9.23041 9.81413C9.1158 9.94721 8.99736 9.96242 8.7987 9.86356C8.60004 9.7647 7.9582 9.55558 7.19794 8.87877C6.60577 8.35405 6.20462 7.70386 6.09001 7.50615C5.9754 7.30843 6.07855 7.20196 6.17788 7.1031C6.26575 7.01565 6.37654 6.87116 6.47587 6.7571C6.5752 6.64303 6.60959 6.55938 6.67454 6.4263C6.73948 6.29322 6.70892 6.17915 6.65925 6.08029C6.60959 5.98523 6.2199 5.00424 6.04416 4.61261Z" fill="#FFBD59"/>
</svg>
