<svg width="18" height="16" viewBox="0 0 18 16" fill="none" xmlns="http://www.w3.org/2000/svg">
<path d="M6.9717 0H10.9717C11.5248 0 11.9717 0.446875 11.9717 1H14.3186C14.9623 1 15.3061 1.75938 14.8842 2.24375L14.2217 3H3.7217L3.0592 2.24375C2.63733 1.75938 2.98108 1 3.62483 1H5.9717C5.9717 0.446875 6.41858 0 6.9717 0ZM2.9717 4H14.9717C15.5248 4 15.9717 4.44688 15.9717 5V8.85938C15.9717 9.275 15.8405 9.68125 15.5998 10.0219L13.9936 12.2688C13.9342 12.3031 13.878 12.3375 13.8217 12.3781C13.3373 12.7125 12.7592 12.9406 12.228 13H11.7092C11.1748 12.9438 10.6155 12.7188 10.1217 12.3781C9.43108 11.8938 8.5092 11.8938 7.81858 12.3781C7.35608 12.6969 6.80295 12.9406 6.23733 13H5.71858C5.18733 12.9438 4.60608 12.7125 4.12483 12.3781C4.06858 12.3375 4.0092 12.3031 3.94983 12.2688L2.34358 10.0219C2.10295 9.68125 1.9717 9.275 1.9717 8.85938V5C1.9717 4.44688 2.41858 4 2.9717 4ZM3.9717 6V9H13.9717V6H3.9717ZM9.54983 13.1844C10.253 13.6687 11.1123 14 11.9717 14C12.8123 14 13.6998 13.6625 14.3905 13.1844C14.7623 12.9187 15.2686 12.9406 15.6155 13.2375C16.0655 13.6094 16.6311 13.8937 17.1967 14.025C17.7342 14.15 18.0686 14.6875 17.9436 15.225Cnan nan 17.2811 16.0969 16.7436 15.9719C15.978 15.7937 15.3405 15.4563 14.9248 15.1906C14.0186 15.6781 13.003 16 11.9717 16C10.9748 16 10.078 15.6906 9.4592 15.4094C9.27795 15.325 9.11233 15.2437 8.9717 15.1687C8.83108 15.2437 8.66858 15.3281 8.4842 15.4094C7.86545 15.6906 6.96858 16 5.9717 16C4.94045 16 3.92483 15.6781 3.01858 15.1938C2.59983 15.4563 1.96545 15.7969 1.19983 15.975C0.662328 16.1 0.124828 15.7656 -0.000171827 15.2281Cnan nan 0.209203 14.1531 0.746703 14.0281C1.31233 13.8969 1.87795 13.6125 2.32795 13.2406C2.67483 12.9469 3.18108 12.925 3.55295 13.1875C4.24358 13.6625 5.13108 14 5.9717 14C6.83108 14 7.69045 13.6687 8.39358 13.1844C8.74045 12.9375 9.20295 12.9375 9.54983 13.1844Z" fill="#274472"/>
</svg>
