<svg width="250" height="45" viewBox="0 0 250 45" fill="none" xmlns="http://www.w3.org/2000/svg">
<path d="M115.151 39.662C129.341 32.4696 129.854 43.5574 141.393 41.5181C128.413 49.9682 125.421 37.0122 115.151 39.662Z" fill="#FFFFFF"/>
<path d="M142.651 40.7C149.806 36.4993 150.783 42.4095 156.242 41.5914C149.843 45.7554 147.523 39.0881 142.651 40.7Z" fill="#FFBD59"/>
<path d="M11.8937 37.4395C7.08251 37.4395 2.78416 35.3636 0 32.5306L2.63762 29.6C5.32409 32.1765 8.40132 33.8494 12.0525 33.8494C16.7538 33.8494 19.6967 31.5171 19.6967 27.7805C19.6967 24.4957 17.7185 22.6151 11.2465 20.295C3.5901 17.5597 1.01353 15.0808 1.01353 9.96434C1.01353 4.29834 5.47062 0.903625 12.0891 0.903625C16.8515 0.903625 19.8799 2.32012 22.8716 4.70131L20.3439 7.79074C17.7673 5.66599 15.3861 4.50593 11.8449 4.50593C6.98482 4.50593 4.95775 6.93596 4.95775 9.72011C4.95775 12.6508 6.27656 14.3237 13.3591 16.8515C21.1987 19.6845 23.6287 22.3221 23.6287 27.5851C23.6287 33.1534 19.2815 37.4518 11.8937 37.4518V37.4395Z" fill="#FFFFFF"/>
<path d="M55.1215 36.8901H50.6644L45.0961 14.2139C44.5344 11.8815 43.7773 8.38911 43.3743 6.21552C42.9714 8.38911 42.2143 11.7838 41.6526 14.2139L36.0842 36.8901H31.737L24.6545 1.46536H28.5988L32.7506 24.2393C33.1535 26.5716 33.7641 30.4181 34.0694 32.1277C34.3747 30.4059 35.1806 26.6082 35.7423 24.3369L41.3595 1.46536H45.609L51.2262 24.3369C51.7879 26.6204 52.5938 30.4059 52.8991 32.1277C53.2044 30.4059 53.8149 26.5594 54.2179 24.2393L58.3697 1.46536H62.2162L55.1337 36.8901H55.1215Z" fill="#FFFFFF"/>
<path d="M65.1831 36.8901V1.46536H69.1273V36.8901H65.1831Z" fill="#FFFFFF"/>
<path d="M100.657 36.8901V9.10958C100.303 10.4772 99.2892 13.1026 98.5321 14.9832L89.0684 37.8059L79.7513 14.9832C78.9942 13.1637 78.0295 10.4772 77.6754 9.10958V36.8901H73.8777V1.46536H78.2859L86.6384 22.664C87.4932 24.7888 88.7632 28.0858 89.1661 29.5511C89.6179 28.0369 90.8879 24.7399 91.6938 22.664L100.144 1.46536H104.442V36.8901H100.645H100.657Z" fill="#FFFFFF"/>
<path d="M122.063 37.4395C113.259 37.4395 107.434 29.9052 107.434 19.2204C107.434 8.53563 113.369 0.903625 122.173 0.903625C130.977 0.903625 136.851 8.45015 136.851 19.1227C136.851 29.7953 130.88 37.4395 122.075 37.4395H122.063ZM122.014 4.50593C115.896 4.50593 111.391 10.2208 111.391 19.1349C111.391 28.0491 116.043 33.8617 122.222 33.8617C128.401 33.8617 132.894 28.1468 132.894 19.2326C132.894 10.3185 128.193 4.50593 122.014 4.50593Z" fill="#FFFFFF"/>
<path d="M152.384 37.4396C143.934 37.4396 139.574 32.3231 139.574 22.5175V1.46536H143.518V22.4198C143.518 30.064 146.449 33.8617 152.579 33.8617C158.709 33.8617 161.127 30.1617 161.127 22.5297V1.46536H165.071V22.4198C165.071 32.2376 160.871 37.4518 152.372 37.4518L152.384 37.4396Z" fill="#FFFFFF"/>
<path d="M168.295 36.8901V1.46536H189.701V5.05546H172.239V16.1921H182.362V19.7822H172.239V33.2877H190.458V36.8778H168.295V36.8901Z" fill="#FFFFFF"/>
<path d="M203.646 37.4396C198.834 37.4396 194.536 35.3637 191.752 32.5307L194.39 29.6C197.076 32.1765 200.153 33.8495 203.804 33.8495C208.506 33.8495 211.449 31.5171 211.449 27.7805C211.449 24.4957 209.47 22.6152 202.998 20.295C195.354 17.5597 192.778 15.0809 192.778 9.97657C192.778 4.31058 197.235 0.915863 203.865 0.915863C208.628 0.915863 211.656 2.33236 214.648 4.71355L212.12 7.80298C209.544 5.67823 207.163 4.51817 203.621 4.51817C198.761 4.51817 196.734 6.9482 196.734 9.73235C196.734 12.663 198.053 14.336 205.135 16.8637C212.975 19.6967 215.405 22.3343 215.405 27.5973C215.405 33.1656 211.058 37.464 203.67 37.464L203.646 37.4396Z" fill="#FFFFFF"/>
<path d="M229.912 5.05546V36.8901H225.968V5.05546H215.54V1.46536H240.341V5.05546H229.912Z" fill="#FFFFFF"/>
<path d="M246.581 6.83827C244.639 6.83827 243.162 5.45841 243.162 3.41914C243.162 1.37987 244.639 0 246.581 0C248.523 0 250 1.37987 250 3.41914C250 5.45841 248.523 6.83827 246.581 6.83827ZM246.581 0.439603C244.908 0.439603 243.626 1.66072 243.626 3.41914C243.626 5.17755 244.908 6.39867 246.581 6.39867C248.254 6.39867 249.536 5.17755 249.536 3.41914C249.536 1.66072 248.254 0.439603 246.581 0.439603ZM247.216 3.62673L248.059 5.25082H247.472L246.654 3.67557H245.836V5.25082H245.335V1.46534H246.874C247.558 1.46534 248.083 1.80726 248.083 2.55214C248.083 3.12607 247.741 3.50462 247.216 3.62673ZM246.85 1.91716H245.848V3.19933H246.801C247.338 3.19933 247.595 3.00396 247.595 2.56435C247.595 2.12475 247.326 1.91716 246.85 1.91716Z" fill="#FFFFFF"/>
</svg>
